<svg width="1360" height="611" viewBox="0 0 1360 611" fill="none" xmlns="http://www.w3.org/2000/svg">
<g clip-path="url(#clip0_7_153)">
<rect width="1360" height="611" fill="white"/>
<path fill-rule="evenodd" clip-rule="evenodd" d="M1076.34 106.622C1148.92 96.7773 1224.51 133.32 1269.62 173.476C1310.38 209.768 1285.11 261.208 1300.1 305.825C1313.11 344.575 1357.91 377.267 1351.35 416.774C1344.05 460.745 1310.5 501.406 1262.67 531.18C1211.11 563.281 1146.02 588.812 1076.34 587.98C1007.16 587.154 950.853 554.417 894.664 526.784C838.143 498.989 764.381 474.723 750.971 427.974C737.681 381.64 794.656 341.383 829.834 300.767C857.131 269.251 896.587 246.964 931.698 219.311C980.817 180.625 1002.89 116.584 1076.34 106.622Z" fill="#7C81E9" fill-opacity="0.5"/>
<path d="M974.35 480.037C783.684 464.95 675.339 501.083 645 521.036C860.438 567.282 995.619 547.958 1036.28 532.515C1210.06 471.51 1324.5 472.111 1360 480.037V421C1310.89 446.966 1165.02 495.125 974.35 480.037Z" fill="#C7C7D8" stroke="#1E8956" stroke-opacity="0.76"/>
<path d="M1360 611H312C312 611 429.395 477.05 635.799 518.691C842.203 560.331 988.422 543.903 1035.73 530.483C1215.82 466.07 1326.95 467.588 1360 476.399V611Z" fill="#6A6FF7" stroke="#2C594C"/>
<path fill-rule="evenodd" clip-rule="evenodd" d="M1076.34 106.622C1148.92 96.7773 1224.51 133.32 1269.62 173.476C1310.38 209.768 1285.11 261.208 1300.1 305.825C1313.11 344.575 1357.91 377.267 1351.35 416.774C1344.05 460.745 1310.5 501.406 1262.67 531.18C1211.11 563.281 1146.02 588.812 1076.34 587.98C1007.16 587.154 950.853 554.417 894.664 526.784C838.143 498.989 764.381 474.723 750.971 427.974C737.681 381.64 794.656 341.383 829.834 300.767C857.131 269.251 896.587 246.964 931.698 219.311C980.817 180.625 1002.89 116.584 1076.34 106.622Z" fill="#7C81E9" fill-opacity="0.5"/>
<path d="M974.35 480.037C783.684 464.95 675.339 501.083 645 521.036C860.438 567.282 995.619 547.958 1036.28 532.515C1210.06 471.51 1324.5 472.111 1360 480.037V421C1310.89 446.966 1165.02 495.125 974.35 480.037Z" fill="#C7C7D8" stroke="#1E8956" stroke-opacity="0.76"/>
<path d="M1360 611H312C312 611 429.395 477.05 635.799 518.691C842.203 560.331 988.422 543.903 1035.73 530.483C1215.82 466.07 1326.95 467.588 1360 476.399V611Z" fill="#6A6FF7" stroke="#2C594C"/>
<g clip-path="url(#clip1_7_153)">
<path d="M859.809 419.886C859.366 419.886 858.926 419.825 858.504 419.705C857.97 419.557 857.475 419.316 857.048 418.997C856.62 418.678 856.268 418.288 856.013 417.849L851.895 410.802C851.379 409.916 851.282 408.885 851.626 407.935C851.97 406.986 852.727 406.195 853.73 405.738L920.292 375.458C921.296 375.003 922.465 374.917 923.541 375.221C924.617 375.524 925.513 376.192 926.032 377.077L930.149 384.124C930.666 385.01 930.763 386.041 930.419 386.991C930.075 387.94 929.318 388.731 928.314 389.188L861.753 419.468C861.152 419.742 860.486 419.886 859.809 419.886V419.886Z" fill="#2D34E3"/>
<path d="M883.954 392.433C884.132 392.65 884.284 392.883 884.406 393.129L891.44 406.681C891.666 407.133 891.79 407.619 891.803 408.113C891.817 408.607 891.719 409.099 891.517 409.559C891.315 410.02 891.012 410.441 890.626 410.799C890.239 411.156 889.777 411.443 889.264 411.642L865.608 418.938C863.148 419.696 860.458 419.631 858.048 418.755C855.638 417.88 853.676 416.255 852.534 414.188L852.808 414.071L852.534 414.188C851.338 412.026 851.13 409.54 851.952 407.246C852.773 404.952 854.563 403.023 856.95 401.86L878.763 391.218C879.655 390.866 880.657 390.794 881.602 391.015C882.547 391.236 883.377 391.737 883.954 392.433V392.433Z" fill="#FAFAFB"/>
<path d="M1162.51 356.957H1048.55C1045.96 356.95 1043.46 356.116 1041.5 354.608L994.567 318.082C992.955 316.826 990.879 316.134 988.729 316.135H948.222V192.863C948.225 190.513 949.284 188.26 951.167 186.599C953.05 184.937 955.603 184.003 958.266 184H1152.46C1155.13 184.003 1157.68 184.937 1159.56 186.599C1161.45 188.26 1162.51 190.513 1162.51 192.863L1162.51 356.957Z" fill="#A09EA5"/>
<path d="M994.793 241.205C1006.56 241.205 1016.1 232.788 1016.1 222.405C1016.1 212.022 1006.56 203.605 994.793 203.605C983.025 203.605 973.486 212.022 973.486 222.405C973.486 232.788 983.025 241.205 994.793 241.205Z" fill="#BC0C0C"/>
<path d="M1077.59 212.334H1038.02C1037.29 212.334 1036.59 212.588 1036.08 213.042C1035.56 213.495 1035.28 214.11 1035.28 214.751C1035.28 215.392 1035.56 216.007 1036.08 216.46C1036.59 216.913 1037.29 217.168 1038.02 217.168H1077.59C1078.31 217.168 1079.01 216.913 1079.52 216.46C1080.04 216.007 1080.32 215.392 1080.32 214.751C1080.32 214.11 1080.04 213.495 1079.52 213.042C1079.01 212.588 1078.31 212.334 1077.59 212.334Z" fill="white"/>
<path d="M1135.03 227.642H1037.49C1036.27 227.642 1035.28 228.727 1035.28 230.059C1035.28 231.391 1036.27 232.476 1037.49 232.476H1135.03C1136.25 232.476 1137.24 231.391 1137.24 230.059C1137.24 228.727 1136.25 227.642 1135.03 227.642Z" fill="white"/>
<path d="M1127.36 260.005H983.366C982.197 260.005 981.247 261.09 981.247 262.422C981.247 263.754 982.197 264.839 983.366 264.839H1127.36C1128.53 264.839 1129.48 263.754 1129.48 262.422C1129.48 261.09 1128.53 260.005 1127.36 260.005Z" fill="white"/>
<path d="M1127.36 275.044H983.366C982.197 275.044 981.247 276.129 981.247 277.461C981.247 278.793 982.197 279.878 983.366 279.878H1127.36C1128.53 279.878 1129.48 278.793 1129.48 277.461C1129.48 276.129 1128.53 275.044 1127.36 275.044Z" fill="white"/>
<path d="M1127.36 290.084H983.366C982.197 290.084 981.247 291.169 981.247 292.501C981.247 293.833 982.197 294.918 983.366 294.918H1127.36C1128.53 294.918 1129.48 293.833 1129.48 292.501C1129.48 291.169 1128.53 290.084 1127.36 290.084Z" fill="white"/>
<path d="M1127.36 305.124H983.366C982.197 305.124 981.247 306.209 981.247 307.541C981.247 308.873 982.197 309.958 983.366 309.958H1127.36C1128.53 309.958 1129.48 308.873 1129.48 307.541C1129.48 306.209 1128.53 305.124 1127.36 305.124Z" fill="white"/>
<path d="M1256.87 356.957H1048.55C1046.48 356.96 1044.45 356.426 1042.72 355.42L1042.58 355.34V229.925C1042.58 227.575 1043.64 225.323 1045.53 223.661C1047.41 222 1049.96 221.065 1052.63 221.062H1246.82C1249.49 221.065 1252.04 222 1253.92 223.661C1255.81 225.323 1256.86 227.575 1256.87 229.925L1256.87 356.957Z" fill="#2D34E3"/>
<path d="M1089.15 278.267C1100.92 278.267 1110.46 269.85 1110.46 259.467C1110.46 249.085 1100.92 240.668 1089.15 240.668C1077.38 240.668 1067.84 249.085 1067.84 259.467C1067.84 269.85 1077.38 278.267 1089.15 278.267Z" fill="#EC5FEE"/>
<path d="M1171.94 249.396H1132.37C1131.65 249.396 1130.95 249.651 1130.44 250.104C1129.92 250.557 1129.64 251.172 1129.64 251.813C1129.64 252.454 1129.92 253.069 1130.44 253.522C1130.95 253.976 1131.65 254.23 1132.37 254.23H1171.94C1172.67 254.23 1173.37 253.976 1173.88 253.522C1174.4 253.069 1174.68 252.454 1174.68 251.813C1174.68 251.172 1174.4 250.557 1173.88 250.104C1173.37 249.651 1172.67 249.396 1171.94 249.396Z" fill="white"/>
<path d="M1229.39 264.704H1131.85C1130.63 264.704 1129.63 265.789 1129.63 267.122C1129.63 268.454 1130.63 269.539 1131.85 269.539H1229.39C1230.61 269.539 1231.6 268.454 1231.6 267.122C1231.6 265.789 1230.61 264.704 1229.39 264.704Z" fill="white"/>
<path d="M1221.72 297.067H1077.73C1076.56 297.067 1075.61 298.152 1075.61 299.484C1075.61 300.816 1076.56 301.901 1077.73 301.901H1221.72C1222.89 301.901 1223.84 300.816 1223.84 299.484C1223.84 298.152 1222.89 297.067 1221.72 297.067Z" fill="white"/>
<path d="M1221.72 312.107H1077.73C1076.56 312.107 1075.61 313.192 1075.61 314.524C1075.61 315.856 1076.56 316.941 1077.73 316.941H1221.72C1222.89 316.941 1223.84 315.856 1223.84 314.524C1223.84 313.192 1222.89 312.107 1221.72 312.107Z" fill="white"/>
<path d="M1221.72 327.146H1077.73C1076.56 327.146 1075.61 328.231 1075.61 329.563C1075.61 330.895 1076.56 331.981 1077.73 331.981H1221.72C1222.89 331.981 1223.84 330.895 1223.84 329.563C1223.84 328.231 1222.89 327.146 1221.72 327.146Z" fill="white"/>
<path d="M1221.72 342.186H1077.73C1076.56 342.186 1075.61 343.271 1075.61 344.603C1075.61 345.935 1076.56 347.02 1077.73 347.02H1221.72C1222.89 347.02 1223.84 345.935 1223.84 344.603C1223.84 343.271 1222.89 342.186 1221.72 342.186Z" fill="white"/>
<path d="M1262.65 355.614H1048.55C1046.49 355.617 1044.5 355.003 1042.89 353.874C1042.76 353.788 1042.64 353.697 1042.51 353.6L1024.39 339.5L995.572 317.075C993.683 315.603 991.249 314.791 988.729 314.792H936.351C933.607 314.796 930.977 315.759 929.037 317.471C927.097 319.182 926.005 321.503 926.001 323.924V532.869C926.005 535.289 927.097 537.61 929.037 539.322C930.977 541.033 933.607 541.997 936.351 542H1262.65C1265.39 541.997 1268.02 541.033 1269.96 539.322C1271.9 537.61 1273 535.289 1273 532.869V364.746C1273 362.325 1271.9 360.004 1269.96 358.293C1268.02 356.581 1265.39 355.618 1262.65 355.614V355.614ZM1271.78 532.869C1271.78 535.005 1270.82 537.053 1269.1 538.563C1267.39 540.073 1265.07 540.923 1262.65 540.926H936.351C933.93 540.923 931.609 540.073 929.897 538.563C928.185 537.053 927.222 535.005 927.219 532.869V323.924C927.222 321.787 928.185 319.74 929.897 318.229C931.609 316.719 933.93 315.869 936.351 315.867H988.729C990.953 315.865 993.101 316.581 994.768 317.881L1022.55 339.5L1041.7 354.406C1043.6 355.871 1046.03 356.682 1048.55 356.689H1262.65C1265.07 356.691 1267.39 357.541 1269.1 359.051C1270.82 360.562 1271.78 362.61 1271.78 364.746V532.869Z" fill="black"/>
<path d="M831.858 387.891C849.852 387.891 864.438 375.021 864.438 359.145C864.438 343.268 849.852 330.398 831.858 330.398C813.864 330.398 799.277 343.268 799.277 359.145C799.277 375.021 813.864 387.891 831.858 387.891Z" fill="#2D34E3"/>
<path d="M831.594 541.687H822.609C821.479 541.686 820.396 541.29 819.597 540.585C818.799 539.88 818.349 538.924 818.348 537.927V471.853C818.349 470.856 818.799 469.9 819.597 469.195C820.396 468.49 821.479 468.094 822.609 468.093H831.594C832.724 468.094 833.807 468.49 834.606 469.195C835.405 469.9 835.854 470.856 835.856 471.853V537.927C835.854 538.924 835.405 539.88 834.606 540.585C833.807 541.29 832.724 541.686 831.594 541.687V541.687Z" fill="#2D34E3"/>
<path d="M851.075 541.687H842.09C840.96 541.686 839.877 541.29 839.078 540.585C838.279 539.88 837.83 538.924 837.828 537.927V471.853C837.83 470.856 838.279 469.9 839.078 469.195C839.877 468.49 840.96 468.094 842.09 468.093H851.075C852.205 468.094 853.288 468.49 854.087 469.195C854.886 469.9 855.335 470.856 855.336 471.853V537.927C855.335 538.924 854.886 539.88 854.087 540.585C853.288 541.29 852.205 541.686 851.075 541.687V541.687Z" fill="#2D34E3"/>
<path d="M883.703 457.223C883.703 480.659 858.718 488.218 832.157 488.218C805.596 488.218 787.517 480.659 787.517 457.223C787.517 433.788 805.396 393.842 831.957 393.842C858.518 393.842 883.703 433.788 883.703 457.223Z" fill="#FAFAFB"/>
<path d="M831.173 369.799L831.139 368.725C833.404 368.669 835.401 368.544 836.902 367.577C837.327 367.287 837.677 366.92 837.927 366.5C838.177 366.08 838.322 365.618 838.352 365.144C838.378 364.855 838.328 364.564 838.207 364.295C838.085 364.025 837.894 363.784 837.65 363.59C836.654 362.847 835.051 363.088 833.883 363.56L832.875 363.968L834.807 351.511L836.013 351.657L834.37 362.253C835.958 361.841 837.428 362.019 838.436 362.769C838.823 363.067 839.126 363.44 839.322 363.859C839.519 364.277 839.603 364.73 839.568 365.182C839.533 365.818 839.34 366.44 839.003 367.003C838.667 367.567 838.195 368.059 837.62 368.444C835.692 369.687 833.187 369.749 831.173 369.799Z" fill="#FAFAFB"/>
<path d="M848.536 352.571H841.979V353.645H848.536V352.571Z" fill="#FAFAFB"/>
<path d="M827.838 352.571H821.281V353.645H827.838V352.571Z" fill="#FAFAFB"/>
<path d="M1193.86 504.938H1014.88C1012.46 504.935 1010.14 504.086 1008.43 502.575C1006.72 501.065 1005.75 499.017 1005.75 496.881V409.865C1005.75 407.729 1006.72 405.681 1008.43 404.17C1010.14 402.66 1012.46 401.81 1014.88 401.808H1193.86C1196.28 401.81 1198.6 402.66 1200.31 404.17C1202.03 405.681 1202.99 407.729 1202.99 409.865V496.881C1202.99 499.017 1202.03 501.065 1200.31 502.575C1198.6 504.086 1196.28 504.935 1193.86 504.938ZM1014.88 402.882C1012.78 402.884 1010.77 403.621 1009.29 404.93C1007.8 406.239 1006.97 408.014 1006.97 409.865V496.881C1006.97 498.732 1007.8 500.507 1009.29 501.816C1010.77 503.125 1012.78 503.861 1014.88 503.863H1193.86C1195.96 503.861 1197.97 503.125 1199.45 501.816C1200.94 500.507 1201.77 498.732 1201.77 496.881V409.865C1201.77 408.014 1200.94 406.239 1199.45 404.93C1197.97 403.621 1195.96 402.884 1193.86 402.882H1014.88Z" fill="black"/>
<path d="M1043.8 452.836C1055.57 452.836 1065.11 444.419 1065.11 434.036C1065.11 423.653 1055.57 415.236 1043.8 415.236C1032.03 415.236 1022.49 423.653 1022.49 434.036C1022.49 444.419 1032.03 452.836 1043.8 452.836Z" fill="#808082"/>
<path d="M1126.59 423.965H1087.02C1086.29 423.965 1085.6 424.219 1085.08 424.673C1084.57 425.126 1084.28 425.741 1084.28 426.382C1084.28 427.023 1084.57 427.638 1085.08 428.091C1085.6 428.544 1086.29 428.799 1087.02 428.799H1126.59C1127.32 428.799 1128.01 428.544 1128.53 428.091C1129.04 427.638 1129.33 427.023 1129.33 426.382C1129.33 425.741 1129.04 425.126 1128.53 424.673C1128.01 424.219 1127.32 423.965 1126.59 423.965Z" fill="#808082"/>
<path d="M1184.03 439.273H1086.5C1085.27 439.273 1084.28 440.358 1084.28 441.69C1084.28 443.022 1085.27 444.107 1086.5 444.107H1184.03C1185.26 444.107 1186.25 443.022 1186.25 441.69C1186.25 440.358 1185.26 439.273 1184.03 439.273Z" fill="#808082"/>
<path d="M1176.37 471.635H1032.37C1031.2 471.635 1030.25 472.72 1030.25 474.053C1030.25 475.385 1031.2 476.47 1032.37 476.47H1176.37C1177.54 476.47 1178.49 475.385 1178.49 474.053C1178.49 472.72 1177.54 471.635 1176.37 471.635Z" fill="#808082"/>
<path d="M1176.37 486.675H1032.37C1031.2 486.675 1030.25 487.76 1030.25 489.092C1030.25 490.424 1031.2 491.509 1032.37 491.509H1176.37C1177.54 491.509 1178.49 490.424 1178.49 489.092C1178.49 487.76 1177.54 486.675 1176.37 486.675Z" fill="#808082"/>
<path d="M805.855 351.246C808.389 347.881 812.848 346.454 817.245 346.107C822.193 345.716 826.975 346.558 831.807 347.376C837.124 348.277 842.752 349.119 848.11 347.981C850.481 347.497 852.695 346.545 854.588 345.196C856.48 343.847 858.001 342.136 859.035 340.194C860.997 336.403 861.42 332.132 860.232 328.098C858.977 323.809 855.86 320.034 852.082 317.183C844.371 311.364 833.936 308.749 823.899 308.996C813.9 309.223 804.236 312.222 796.277 317.565C788.303 323.102 782.693 330.86 780.36 339.573C777.921 348.214 778.716 357.319 782.625 365.529C784.821 370.025 787.998 374.077 790.449 378.46C792.731 382.54 794.489 387.284 793.069 391.835C791.823 395.828 788.165 399.376 783.572 400.46C779.198 401.493 774.879 399.8 772.483 396.466C770.187 393.272 770.132 389.088 773.579 386.509C774.448 385.848 775.46 385.35 776.554 385.045C777.648 384.74 778.801 384.635 779.943 384.735C781.085 384.836 782.191 385.14 783.196 385.63C784.2 386.12 785.081 386.784 785.785 387.584C787.183 389.186 787.809 391.211 787.527 393.218C787.357 394.232 789.116 394.67 789.288 393.646C789.699 391.524 789.243 389.341 788.001 387.487C786.758 385.634 784.811 384.23 782.504 383.525C780.198 382.82 777.683 382.861 775.408 383.639C773.132 384.418 771.244 385.884 770.079 387.777C768.001 391.225 769.122 395.385 771.761 398.332C773.122 399.902 774.968 401.093 777.076 401.762C779.184 402.431 781.466 402.55 783.649 402.104C788.452 401.125 792.382 397.757 794.229 393.799C796.286 389.392 795.344 384.475 793.339 380.199C791.171 375.577 787.952 371.431 785.406 366.977C783.101 362.952 781.634 358.594 781.075 354.111C779.957 345.109 782.273 336.035 787.656 328.325C793.142 320.734 801.517 315.118 811.275 312.486C820.897 309.821 831.509 309.903 840.93 313.178C850.21 316.404 859.171 323.435 859.063 332.878C859.017 336.911 857.32 341.025 853.818 343.715C849.634 346.93 843.807 347.205 838.546 346.704C833.252 346.199 828.111 344.834 822.795 344.486C818.17 344.184 813.181 344.498 809.052 346.526C807.129 347.472 805.492 348.812 804.279 350.433C803.626 351.299 805.207 352.107 805.855 351.246L805.855 351.246Z" fill="black"/>
<path d="M796.47 485.981C796.254 485.981 796.039 485.966 795.826 485.937L786.943 484.745C785.826 484.593 784.823 484.058 784.154 483.255C783.484 482.452 783.203 481.447 783.372 480.462L794.64 415.139C794.811 414.154 795.419 413.269 796.329 412.678C797.239 412.087 798.377 411.839 799.494 411.988L808.377 413.181C809.494 413.332 810.497 413.868 811.167 414.67C811.836 415.473 812.117 416.478 811.949 417.463L800.68 482.786C800.525 483.674 800.016 484.484 799.244 485.07C798.472 485.656 797.488 485.979 796.47 485.981V485.981Z" fill="#2D34E3"/>
<path d="M807.085 441.462C806.781 441.462 806.478 441.433 806.181 441.377L789.62 438.436C789.072 438.333 788.553 438.135 788.092 437.854C787.631 437.574 787.238 437.216 786.934 436.801C786.63 436.386 786.422 435.922 786.321 435.436C786.22 434.95 786.229 434.451 786.347 433.968L793.555 412.792C794.305 410.59 795.945 408.708 798.164 407.501C800.382 406.295 803.026 405.849 805.592 406.247L805.539 406.512L805.592 406.248C808.278 406.664 810.68 407.976 812.301 409.91C813.923 411.845 814.64 414.255 814.304 416.643L811.249 438.47C811.048 439.314 810.525 440.072 809.767 440.616C809.009 441.161 808.062 441.46 807.085 441.462H807.085Z" fill="#FAFAFB"/>
<path d="M885.796 542H790.22C790.058 542 789.903 541.943 789.789 541.843C789.675 541.742 789.611 541.605 789.611 541.463C789.611 541.32 789.675 541.184 789.789 541.083C789.903 540.982 790.058 540.926 790.22 540.926H885.796C885.958 540.926 886.113 540.982 886.227 541.083C886.341 541.184 886.405 541.32 886.405 541.463C886.405 541.605 886.341 541.742 886.227 541.843C886.113 541.943 885.958 542 885.796 542Z" fill="url(#paint0_linear_7_153)"/>
</g>
</g>
<defs>
<linearGradient id="paint0_linear_7_153" x1="838.008" y1="540.926" x2="838.008" y2="542" gradientUnits="userSpaceOnUse">
<stop/>
<stop offset="1" stop-color="white"/>
</linearGradient>
<clipPath id="clip0_7_153">
<rect width="1360" height="611" fill="white"/>
</clipPath>
<clipPath id="clip1_7_153">
<rect width="504" height="358" fill="white" transform="translate(769 184)"/>
</clipPath>
</defs>
</svg>
