<svg width="1360" height="548" viewBox="0 0 1360 548" fill="none" xmlns="http://www.w3.org/2000/svg">
<g clip-path="url(#clip0_7_153)">
<rect width="1360" height="548" fill="white"/>
<path fill-rule="evenodd" clip-rule="evenodd" d="M1076.34 43.6224C1148.92 33.7773 1224.51 70.3199 1269.62 110.476C1310.38 146.768 1285.11 198.208 1300.1 242.825C1313.11 281.575 1357.91 314.267 1351.35 353.774C1344.05 397.745 1310.5 438.406 1262.67 468.18C1211.11 500.281 1146.02 525.812 1076.34 524.98C1007.16 524.154 950.853 491.417 894.664 463.784C838.143 435.989 764.381 411.723 750.971 364.974C737.681 318.64 794.656 278.383 829.834 237.767C857.131 206.251 896.587 183.964 931.698 156.311C980.817 117.625 1002.89 53.5845 1076.34 43.6224Z" fill="#7C81E9" fill-opacity="0.5"/>
<path d="M974.35 417.037C783.684 401.95 675.339 438.083 645 458.036C860.438 504.282 995.619 484.958 1036.28 469.515C1210.06 408.51 1324.5 409.111 1360 417.037V358C1310.89 383.966 1165.02 432.125 974.35 417.037Z" fill="#C7C7D8" stroke="#1E8956" stroke-opacity="0.76"/>
<path d="M1360 548H312C312 548 429.395 414.05 635.799 455.691C842.203 497.331 988.422 480.903 1035.73 467.483C1215.82 403.07 1326.95 404.588 1360 413.399V548Z" fill="#6A6FF7" stroke="#2C594C"/>
<path fill-rule="evenodd" clip-rule="evenodd" d="M1076.34 43.6224C1148.92 33.7773 1224.51 70.3199 1269.62 110.476C1310.38 146.768 1285.11 198.208 1300.1 242.825C1313.11 281.575 1357.91 314.267 1351.35 353.774C1344.05 397.745 1310.5 438.406 1262.67 468.18C1211.11 500.281 1146.02 525.812 1076.34 524.98C1007.16 524.154 950.853 491.417 894.664 463.784C838.143 435.989 764.381 411.723 750.971 364.974C737.681 318.64 794.656 278.383 829.834 237.767C857.131 206.251 896.587 183.964 931.698 156.311C980.817 117.625 1002.89 53.5845 1076.34 43.6224Z" fill="#7C81E9" fill-opacity="0.5"/>
<path d="M974.35 417.037C783.684 401.95 675.339 438.083 645 458.036C860.438 504.282 995.619 484.958 1036.28 469.515C1210.06 408.51 1324.5 409.111 1360 417.037V358C1310.89 383.966 1165.02 432.125 974.35 417.037Z" fill="#C7C7D8" stroke="#1E8956" stroke-opacity="0.76"/>
<path d="M1360 548H312C312 548 429.395 414.05 635.799 455.691C842.203 497.331 988.422 480.903 1035.73 467.483C1215.82 403.07 1326.95 404.588 1360 413.399V548Z" fill="#6A6FF7" stroke="#2C594C"/>
<g clip-path="url(#clip1_7_153)">
<path d="M859.809 356.886C859.366 356.886 858.926 356.825 858.504 356.705C857.97 356.557 857.475 356.316 857.048 355.997C856.62 355.678 856.268 355.288 856.013 354.849L851.895 347.802C851.379 346.916 851.282 345.885 851.626 344.935C851.97 343.986 852.727 343.195 853.73 342.738L920.292 312.458C921.296 312.003 922.465 311.917 923.541 312.221C924.617 312.524 925.513 313.192 926.032 314.077L930.149 321.124C930.666 322.01 930.763 323.041 930.419 323.991C930.075 324.94 929.318 325.731 928.314 326.188L861.753 356.468C861.152 356.742 860.486 356.886 859.809 356.886V356.886Z" fill="#2D34E3"/>
<path d="M883.954 329.433C884.132 329.65 884.284 329.883 884.406 330.129L891.44 343.681C891.666 344.133 891.79 344.619 891.803 345.113C891.817 345.607 891.719 346.099 891.517 346.559C891.315 347.02 891.012 347.441 890.626 347.799C890.239 348.156 889.777 348.443 889.264 348.642L865.608 355.938C863.148 356.696 860.458 356.631 858.048 355.755C855.638 354.88 853.676 353.255 852.534 351.188L852.808 351.071L852.534 351.188C851.338 349.026 851.13 346.54 851.952 344.246C852.773 341.952 854.563 340.023 856.95 338.86L878.763 328.218C879.655 327.866 880.657 327.794 881.602 328.015C882.547 328.236 883.377 328.737 883.954 329.433V329.433Z" fill="#FAFAFB"/>
<path d="M1162.51 293.957H1048.55C1045.96 293.95 1043.46 293.116 1041.5 291.608L994.567 255.082C992.955 253.826 990.879 253.134 988.729 253.135H948.222V129.863C948.225 127.513 949.284 125.26 951.167 123.599C953.05 121.937 955.603 121.003 958.266 121H1152.46C1155.13 121.003 1157.68 121.937 1159.56 123.599C1161.45 125.26 1162.51 127.513 1162.51 129.863L1162.51 293.957Z" fill="#A09EA5"/>
<path d="M994.793 178.205C1006.56 178.205 1016.1 169.788 1016.1 159.405C1016.1 149.022 1006.56 140.605 994.793 140.605C983.025 140.605 973.486 149.022 973.486 159.405C973.486 169.788 983.025 178.205 994.793 178.205Z" fill="#BC0C0C"/>
<path d="M1077.59 149.334H1038.02C1037.29 149.334 1036.59 149.588 1036.08 150.042C1035.56 150.495 1035.28 151.11 1035.28 151.751C1035.28 152.392 1035.56 153.007 1036.08 153.46C1036.59 153.913 1037.29 154.168 1038.02 154.168H1077.59C1078.31 154.168 1079.01 153.913 1079.52 153.46C1080.04 153.007 1080.32 152.392 1080.32 151.751C1080.32 151.11 1080.04 150.495 1079.52 150.042C1079.01 149.588 1078.31 149.334 1077.59 149.334Z" fill="white"/>
<path d="M1135.03 164.642H1037.49C1036.27 164.642 1035.28 165.727 1035.28 167.059C1035.28 168.391 1036.27 169.476 1037.49 169.476H1135.03C1136.25 169.476 1137.24 168.391 1137.24 167.059C1137.24 165.727 1136.25 164.642 1135.03 164.642Z" fill="white"/>
<path d="M1127.36 197.005H983.366C982.197 197.005 981.247 198.09 981.247 199.422C981.247 200.754 982.197 201.839 983.366 201.839H1127.36C1128.53 201.839 1129.48 200.754 1129.48 199.422C1129.48 198.09 1128.53 197.005 1127.36 197.005Z" fill="white"/>
<path d="M1127.36 212.044H983.366C982.197 212.044 981.247 213.129 981.247 214.461C981.247 215.793 982.197 216.878 983.366 216.878H1127.36C1128.53 216.878 1129.48 215.793 1129.48 214.461C1129.48 213.129 1128.53 212.044 1127.36 212.044Z" fill="white"/>
<path d="M1127.36 227.084H983.366C982.197 227.084 981.247 228.169 981.247 229.501C981.247 230.833 982.197 231.918 983.366 231.918H1127.36C1128.53 231.918 1129.48 230.833 1129.48 229.501C1129.48 228.169 1128.53 227.084 1127.36 227.084Z" fill="white"/>
<path d="M1127.36 242.124H983.366C982.197 242.124 981.247 243.209 981.247 244.541C981.247 245.873 982.197 246.958 983.366 246.958H1127.36C1128.53 246.958 1129.48 245.873 1129.48 244.541C1129.48 243.209 1128.53 242.124 1127.36 242.124Z" fill="white"/>
<path d="M1256.87 293.957H1048.55C1046.48 293.96 1044.45 293.426 1042.72 292.42L1042.58 292.34V166.925C1042.58 164.575 1043.64 162.323 1045.53 160.661C1047.41 159 1049.96 158.065 1052.63 158.062H1246.82C1249.49 158.065 1252.04 159 1253.92 160.661C1255.81 162.323 1256.86 164.575 1256.87 166.925L1256.87 293.957Z" fill="#2D34E3"/>
<path d="M1089.15 215.267C1100.92 215.267 1110.46 206.85 1110.46 196.467C1110.46 186.085 1100.92 177.668 1089.15 177.668C1077.38 177.668 1067.84 186.085 1067.84 196.467C1067.84 206.85 1077.38 215.267 1089.15 215.267Z" fill="#EC5FEE"/>
<path d="M1171.94 186.396H1132.37C1131.65 186.396 1130.95 186.651 1130.44 187.104C1129.92 187.557 1129.64 188.172 1129.64 188.813C1129.64 189.454 1129.92 190.069 1130.44 190.522C1130.95 190.976 1131.65 191.23 1132.37 191.23H1171.94C1172.67 191.23 1173.37 190.976 1173.88 190.522C1174.4 190.069 1174.68 189.454 1174.68 188.813C1174.68 188.172 1174.4 187.557 1173.88 187.104C1173.37 186.651 1172.67 186.396 1171.94 186.396Z" fill="white"/>
<path d="M1229.39 201.704H1131.85C1130.63 201.704 1129.63 202.789 1129.63 204.122C1129.63 205.454 1130.63 206.539 1131.85 206.539H1229.39C1230.61 206.539 1231.6 205.454 1231.6 204.122C1231.6 202.789 1230.61 201.704 1229.39 201.704Z" fill="white"/>
<path d="M1221.72 234.067H1077.73C1076.56 234.067 1075.61 235.152 1075.61 236.484C1075.61 237.816 1076.56 238.901 1077.73 238.901H1221.72C1222.89 238.901 1223.84 237.816 1223.84 236.484C1223.84 235.152 1222.89 234.067 1221.72 234.067Z" fill="white"/>
<path d="M1221.72 249.107H1077.73C1076.56 249.107 1075.61 250.192 1075.61 251.524C1075.61 252.856 1076.56 253.941 1077.73 253.941H1221.72C1222.89 253.941 1223.84 252.856 1223.84 251.524C1223.84 250.192 1222.89 249.107 1221.72 249.107Z" fill="white"/>
<path d="M1221.72 264.146H1077.73C1076.56 264.146 1075.61 265.231 1075.61 266.563C1075.61 267.895 1076.56 268.981 1077.73 268.981H1221.72C1222.89 268.981 1223.84 267.895 1223.84 266.563C1223.84 265.231 1222.89 264.146 1221.72 264.146Z" fill="white"/>
<path d="M1221.72 279.186H1077.73C1076.56 279.186 1075.61 280.271 1075.61 281.603C1075.61 282.935 1076.56 284.02 1077.73 284.02H1221.72C1222.89 284.02 1223.84 282.935 1223.84 281.603C1223.84 280.271 1222.89 279.186 1221.72 279.186Z" fill="white"/>
<path d="M1262.65 292.614H1048.55C1046.49 292.617 1044.5 292.003 1042.89 290.874C1042.76 290.788 1042.64 290.697 1042.51 290.6L1024.39 276.5L995.572 254.075C993.683 252.603 991.249 251.791 988.729 251.792H936.351C933.607 251.796 930.977 252.759 929.037 254.471C927.097 256.182 926.005 258.503 926.001 260.924V469.869C926.005 472.289 927.097 474.61 929.037 476.322C930.977 478.033 933.607 478.997 936.351 479H1262.65C1265.39 478.997 1268.02 478.033 1269.96 476.322C1271.9 474.61 1273 472.289 1273 469.869V301.746C1273 299.325 1271.9 297.004 1269.96 295.293C1268.02 293.581 1265.39 292.618 1262.65 292.614V292.614ZM1271.78 469.869C1271.78 472.005 1270.82 474.053 1269.1 475.563C1267.39 477.073 1265.07 477.923 1262.65 477.926H936.351C933.93 477.923 931.609 477.073 929.897 475.563C928.185 474.053 927.222 472.005 927.219 469.869V260.924C927.222 258.787 928.185 256.74 929.897 255.229C931.609 253.719 933.93 252.869 936.351 252.867H988.729C990.953 252.865 993.101 253.581 994.768 254.881L1022.55 276.5L1041.7 291.406C1043.6 292.871 1046.03 293.682 1048.55 293.689H1262.65C1265.07 293.691 1267.39 294.541 1269.1 296.051C1270.82 297.562 1271.78 299.61 1271.78 301.746V469.869Z" fill="black"/>
<path d="M831.858 324.891C849.852 324.891 864.438 312.021 864.438 296.145C864.438 280.268 849.852 267.398 831.858 267.398C813.864 267.398 799.277 280.268 799.277 296.145C799.277 312.021 813.864 324.891 831.858 324.891Z" fill="#2D34E3"/>
<path d="M831.594 478.687H822.609C821.479 478.686 820.396 478.29 819.597 477.585C818.799 476.88 818.349 475.924 818.348 474.927V408.853C818.349 407.856 818.799 406.9 819.597 406.195C820.396 405.49 821.479 405.094 822.609 405.093H831.594C832.724 405.094 833.807 405.49 834.606 406.195C835.405 406.9 835.854 407.856 835.856 408.853V474.927C835.854 475.924 835.405 476.88 834.606 477.585C833.807 478.29 832.724 478.686 831.594 478.687V478.687Z" fill="#2D34E3"/>
<path d="M851.075 478.687H842.09C840.96 478.686 839.877 478.29 839.078 477.585C838.279 476.88 837.83 475.924 837.828 474.927V408.853C837.83 407.856 838.279 406.9 839.078 406.195C839.877 405.49 840.96 405.094 842.09 405.093H851.075C852.205 405.094 853.288 405.49 854.087 406.195C854.886 406.9 855.335 407.856 855.336 408.853V474.927C855.335 475.924 854.886 476.88 854.087 477.585C853.288 478.29 852.205 478.686 851.075 478.687V478.687Z" fill="#2D34E3"/>
<path d="M883.703 394.223C883.703 417.659 858.718 425.218 832.157 425.218C805.596 425.218 787.517 417.659 787.517 394.223C787.517 370.788 805.396 330.842 831.957 330.842C858.518 330.842 883.703 370.788 883.703 394.223Z" fill="#FAFAFB"/>
<path d="M831.173 306.799L831.139 305.725C833.404 305.669 835.401 305.544 836.902 304.577C837.327 304.287 837.677 303.92 837.927 303.5C838.177 303.08 838.322 302.618 838.352 302.144C838.378 301.855 838.328 301.564 838.207 301.295C838.085 301.025 837.894 300.784 837.65 300.59C836.654 299.847 835.051 300.088 833.883 300.56L832.875 300.968L834.807 288.511L836.013 288.657L834.37 299.253C835.958 298.841 837.428 299.019 838.436 299.769C838.823 300.067 839.126 300.44 839.322 300.859C839.519 301.277 839.603 301.73 839.568 302.182C839.533 302.818 839.34 303.44 839.003 304.003C838.667 304.567 838.195 305.059 837.62 305.444C835.692 306.687 833.187 306.749 831.173 306.799Z" fill="#FAFAFB"/>
<path d="M848.536 289.571H841.979V290.645H848.536V289.571Z" fill="#FAFAFB"/>
<path d="M827.838 289.571H821.281V290.645H827.838V289.571Z" fill="#FAFAFB"/>
<path d="M1193.86 441.938H1014.88C1012.46 441.935 1010.14 441.086 1008.43 439.575C1006.72 438.065 1005.75 436.017 1005.75 433.881V346.865C1005.75 344.729 1006.72 342.681 1008.43 341.17C1010.14 339.66 1012.46 338.81 1014.88 338.808H1193.86C1196.28 338.81 1198.6 339.66 1200.31 341.17C1202.03 342.681 1202.99 344.729 1202.99 346.865V433.881C1202.99 436.017 1202.03 438.065 1200.31 439.575C1198.6 441.086 1196.28 441.935 1193.86 441.938ZM1014.88 339.882C1012.78 339.884 1010.77 340.621 1009.29 341.93C1007.8 343.239 1006.97 345.014 1006.97 346.865V433.881C1006.97 435.732 1007.8 437.507 1009.29 438.816C1010.77 440.125 1012.78 440.861 1014.88 440.863H1193.86C1195.96 440.861 1197.97 440.125 1199.45 438.816C1200.94 437.507 1201.77 435.732 1201.77 433.881V346.865C1201.77 345.014 1200.94 343.239 1199.45 341.93C1197.97 340.621 1195.96 339.884 1193.86 339.882H1014.88Z" fill="black"/>
<path d="M1043.8 389.836C1055.57 389.836 1065.11 381.419 1065.11 371.036C1065.11 360.653 1055.57 352.236 1043.8 352.236C1032.03 352.236 1022.49 360.653 1022.49 371.036C1022.49 381.419 1032.03 389.836 1043.8 389.836Z" fill="#808082"/>
<path d="M1126.59 360.965H1087.02C1086.29 360.965 1085.6 361.219 1085.08 361.673C1084.57 362.126 1084.28 362.741 1084.28 363.382C1084.28 364.023 1084.57 364.638 1085.08 365.091C1085.6 365.544 1086.29 365.799 1087.02 365.799H1126.59C1127.32 365.799 1128.01 365.544 1128.53 365.091C1129.04 364.638 1129.33 364.023 1129.33 363.382C1129.33 362.741 1129.04 362.126 1128.53 361.673C1128.01 361.219 1127.32 360.965 1126.59 360.965Z" fill="#808082"/>
<path d="M1184.03 376.273H1086.5C1085.27 376.273 1084.28 377.358 1084.28 378.69C1084.28 380.022 1085.27 381.107 1086.5 381.107H1184.03C1185.26 381.107 1186.25 380.022 1186.25 378.69C1186.25 377.358 1185.26 376.273 1184.03 376.273Z" fill="#808082"/>
<path d="M1176.37 408.635H1032.37C1031.2 408.635 1030.25 409.72 1030.25 411.053C1030.25 412.385 1031.2 413.47 1032.37 413.47H1176.37C1177.54 413.47 1178.49 412.385 1178.49 411.053C1178.49 409.72 1177.54 408.635 1176.37 408.635Z" fill="#808082"/>
<path d="M1176.37 423.675H1032.37C1031.2 423.675 1030.25 424.76 1030.25 426.092C1030.25 427.424 1031.2 428.509 1032.37 428.509H1176.37C1177.54 428.509 1178.49 427.424 1178.49 426.092C1178.49 424.76 1177.54 423.675 1176.37 423.675Z" fill="#808082"/>
<path d="M805.855 288.246C808.389 284.881 812.848 283.454 817.245 283.107C822.193 282.716 826.975 283.558 831.807 284.376C837.124 285.277 842.752 286.119 848.11 284.981C850.481 284.497 852.695 283.545 854.588 282.196C856.48 280.847 858.001 279.136 859.035 277.194C860.997 273.403 861.42 269.132 860.232 265.098C858.977 260.809 855.86 257.034 852.082 254.183C844.371 248.364 833.936 245.749 823.899 245.996C813.9 246.223 804.236 249.222 796.277 254.565C788.303 260.102 782.693 267.86 780.36 276.573C777.921 285.214 778.716 294.319 782.625 302.529C784.821 307.025 787.998 311.077 790.449 315.46C792.731 319.54 794.489 324.284 793.069 328.835C791.823 332.828 788.165 336.376 783.572 337.46C779.198 338.493 774.879 336.8 772.483 333.466C770.187 330.272 770.132 326.088 773.579 323.509C774.448 322.848 775.46 322.35 776.554 322.045C777.648 321.74 778.801 321.635 779.943 321.735C781.085 321.836 782.191 322.14 783.196 322.63C784.2 323.12 785.081 323.784 785.785 324.584C787.183 326.186 787.809 328.211 787.527 330.218C787.357 331.232 789.116 331.67 789.288 330.646C789.699 328.524 789.243 326.341 788.001 324.487C786.758 322.634 784.811 321.23 782.504 320.525C780.198 319.82 777.683 319.861 775.408 320.639C773.132 321.418 771.244 322.884 770.079 324.777C768.001 328.225 769.122 332.385 771.761 335.332C773.122 336.902 774.968 338.093 777.076 338.762C779.184 339.431 781.466 339.55 783.649 339.104C788.452 338.125 792.382 334.757 794.229 330.799C796.286 326.392 795.344 321.475 793.339 317.199C791.171 312.577 787.952 308.431 785.406 303.977C783.101 299.952 781.634 295.594 781.075 291.111C779.957 282.109 782.273 273.035 787.656 265.325C793.142 257.734 801.517 252.118 811.275 249.486C820.897 246.821 831.509 246.903 840.93 250.178C850.21 253.404 859.171 260.435 859.063 269.878C859.017 273.911 857.32 278.025 853.818 280.715C849.634 283.93 843.807 284.205 838.546 283.704C833.252 283.199 828.111 281.834 822.795 281.486C818.17 281.184 813.181 281.498 809.052 283.526C807.129 284.472 805.492 285.812 804.279 287.433C803.626 288.299 805.207 289.107 805.855 288.246L805.855 288.246Z" fill="black"/>
<path d="M796.47 422.981C796.254 422.981 796.039 422.966 795.826 422.937L786.943 421.745C785.826 421.593 784.823 421.058 784.154 420.255C783.484 419.452 783.203 418.447 783.372 417.462L794.64 352.139C794.811 351.154 795.419 350.269 796.329 349.678C797.239 349.087 798.377 348.839 799.494 348.988L808.377 350.181C809.494 350.332 810.497 350.868 811.167 351.67C811.836 352.473 812.117 353.478 811.949 354.463L800.68 419.786C800.525 420.674 800.016 421.484 799.244 422.07C798.472 422.656 797.488 422.979 796.47 422.981V422.981Z" fill="#2D34E3"/>
<path d="M807.085 378.462C806.781 378.462 806.478 378.433 806.181 378.377L789.62 375.436C789.072 375.333 788.553 375.135 788.092 374.854C787.631 374.574 787.238 374.216 786.934 373.801C786.63 373.386 786.422 372.922 786.321 372.436C786.22 371.95 786.229 371.451 786.347 370.968L793.555 349.792C794.305 347.59 795.945 345.708 798.164 344.501C800.382 343.295 803.026 342.849 805.592 343.247L805.539 343.512L805.592 343.248C808.278 343.664 810.68 344.976 812.301 346.91C813.923 348.845 814.64 351.255 814.304 353.643L811.249 375.47C811.048 376.314 810.525 377.072 809.767 377.616C809.009 378.161 808.062 378.46 807.085 378.462H807.085Z" fill="#FAFAFB"/>
<path d="M885.796 479H790.22C790.058 479 789.903 478.943 789.789 478.843C789.675 478.742 789.611 478.605 789.611 478.463C789.611 478.32 789.675 478.184 789.789 478.083C789.903 477.982 790.058 477.926 790.22 477.926H885.796C885.958 477.926 886.113 477.982 886.227 478.083C886.341 478.184 886.405 478.32 886.405 478.463C886.405 478.605 886.341 478.742 886.227 478.843C886.113 478.943 885.958 479 885.796 479Z" fill="url(#paint0_linear_7_153)"/>
</g>
</g>
<defs>
<linearGradient id="paint0_linear_7_153" x1="838.008" y1="477.926" x2="838.008" y2="479" gradientUnits="userSpaceOnUse">
<stop/>
<stop offset="1" stop-color="white"/>
</linearGradient>
<clipPath id="clip0_7_153">
<rect width="1360" height="548" fill="white"/>
</clipPath>
<clipPath id="clip1_7_153">
<rect width="504" height="358" fill="white" transform="translate(769 121)"/>
</clipPath>
</defs>
</svg>
